<svg width="272" height="38" viewBox="0 0 272 38" fill="none" xmlns="http://www.w3.org/2000/svg">
<path d="M7.12 5.168V31.572H19.724L18.988 37H0.358V5.168H7.12ZM42.9145 37H37.2565L36.9345 33.734C36.0758 35.0833 35.0331 36.0953 33.8065 36.77C32.5798 37.414 31.1538 37.736 29.5285 37.736C27.3205 37.736 25.6338 37.0767 24.4685 35.758C23.3031 34.4087 22.7205 32.538 22.7205 30.146V12.62H29.2525V29.318C29.2525 30.606 29.4671 31.526 29.8965 32.078C30.3258 32.5993 31.0005 32.86 31.9205 32.86C33.6685 32.86 35.1558 31.802 36.3825 29.686V12.62H42.9145V37ZM59.5305 11.884C61.1559 11.884 62.6125 12.1293 63.9005 12.62C65.2192 13.08 66.4612 13.816 67.6265 14.828L64.7745 18.692C63.9772 18.0787 63.1952 17.634 62.4285 17.358C61.6925 17.082 60.8799 16.944 59.9905 16.944C56.5252 16.944 54.7925 19.612 54.7925 24.948C54.7925 27.6467 55.2372 29.5787 56.1265 30.744C57.0159 31.9093 58.2885 32.492 59.9445 32.492C60.8032 32.492 61.5852 32.3693 62.2905 32.124C62.9959 31.848 63.8239 31.4033 64.7745 30.79L67.6265 34.884C65.2959 36.7853 62.6279 37.736 59.6225 37.736C57.2305 37.736 55.1452 37.2147 53.3665 36.172C51.6185 35.1293 50.2692 33.6573 49.3185 31.756C48.3679 29.824 47.8925 27.57 47.8925 24.994C47.8925 22.418 48.3679 20.1487 49.3185 18.186C50.2692 16.1927 51.6185 14.644 53.3665 13.54C55.1452 12.436 57.1999 11.884 59.5305 11.884ZM89.5121 30.238C89.5121 31.1887 89.6501 31.894 89.9261 32.354C90.2021 32.7833 90.6621 33.1053 91.3061 33.32L89.9261 37.644C88.4848 37.5213 87.3041 37.184 86.3841 36.632C85.4948 36.08 84.8048 35.2213 84.3141 34.056C82.7194 36.5093 80.2814 37.736 77.0001 37.736C74.5774 37.736 72.6454 37.046 71.2041 35.666C69.7934 34.2553 69.0881 32.4307 69.0881 30.192C69.0881 27.524 70.0541 25.4847 71.9861 24.074C73.9181 22.6633 76.6934 21.958 80.3121 21.958H83.1181V20.762C83.1181 19.2593 82.7808 18.2167 82.1061 17.634C81.4314 17.0513 80.3121 16.76 78.7481 16.76C77.0308 16.76 74.8841 17.1893 72.3081 18.048L70.8361 13.678C73.8721 12.482 76.8774 11.884 79.8521 11.884C83.1641 11.884 85.6021 12.6047 87.1661 14.046C88.7301 15.4567 89.5121 17.5727 89.5121 20.394V30.238ZM78.7941 33.044C80.6341 33.044 82.0754 32.1393 83.1181 30.33V25.684H80.9561C77.4294 25.684 75.6661 27.0027 75.6661 29.64C75.6661 30.7133 75.9268 31.5567 76.4481 32.17C77.0001 32.7527 77.7821 33.044 78.7941 33.044ZM103.685 11.884C107.12 11.884 110.064 12.8653 112.517 14.828L110.033 18.554C107.978 17.266 105.954 16.622 103.961 16.622C102.888 16.622 102.06 16.8213 101.477 17.22C100.894 17.6187 100.603 18.1553 100.603 18.83C100.603 19.3207 100.726 19.7347 100.971 20.072C101.247 20.4093 101.738 20.7313 102.443 21.038C103.179 21.3447 104.268 21.7127 105.709 22.142C108.285 22.8473 110.202 23.798 111.459 24.994C112.716 26.1593 113.345 27.7693 113.345 29.824C113.345 31.4493 112.87 32.86 111.919 34.056C110.999 35.252 109.742 36.172 108.147 36.816C106.552 37.4293 104.774 37.736 102.811 37.736C100.756 37.736 98.8858 37.4293 97.1991 36.816C95.5125 36.172 94.0711 35.298 92.8751 34.194L96.0951 30.606C98.1498 32.2007 100.327 32.998 102.627 32.998C103.854 32.998 104.82 32.768 105.525 32.308C106.261 31.8173 106.629 31.158 106.629 30.33C106.629 29.686 106.491 29.18 106.215 28.812C105.939 28.444 105.433 28.1067 104.697 27.8C103.961 27.4627 102.811 27.0793 101.247 26.65C98.7938 25.9753 96.9691 25.0247 95.7731 23.798C94.6078 22.5407 94.0251 20.992 94.0251 19.152C94.0251 17.772 94.4238 16.53 95.2211 15.426C96.0185 14.322 97.1378 13.4633 98.5791 12.85C100.051 12.206 101.753 11.884 103.685 11.884ZM145.805 37L144.011 29.87H134.029L132.235 37H125.197L134.995 5.168H143.229L152.981 37H145.805ZM135.317 24.856H142.723L138.997 10.182L135.317 24.856ZM168.986 11.884C171.838 11.884 174.046 13.0187 175.61 15.288C177.205 17.5573 178.002 20.7313 178.002 24.81C178.002 27.3247 177.604 29.5633 176.806 31.526C176.04 33.458 174.92 34.976 173.448 36.08C172.007 37.184 170.305 37.736 168.342 37.736C165.674 37.736 163.543 36.6933 161.948 34.608L161.58 37H155.784V2.914L162.316 2.178V15.242C163.083 14.1993 164.049 13.3867 165.214 12.804C166.38 12.1907 167.637 11.884 168.986 11.884ZM166.502 32.906C169.63 32.906 171.194 30.2073 171.194 24.81C171.194 21.8353 170.811 19.75 170.044 18.554C169.308 17.3273 168.235 16.714 166.824 16.714C165.076 16.714 163.574 17.7567 162.316 19.842V30.284C163.39 32.032 164.785 32.906 166.502 32.906ZM195.791 11.93C196.527 11.93 197.339 12.0527 198.229 12.298L197.125 18.6C196.266 18.3853 195.545 18.278 194.963 18.278C193.521 18.278 192.402 18.784 191.605 19.796C190.807 20.808 190.179 22.3413 189.719 24.396V37H183.187V12.62H188.845L189.443 17.358C190.025 15.6407 190.869 14.3067 191.973 13.356C193.107 12.4053 194.38 11.93 195.791 11.93ZM218.483 30.238C218.483 31.1887 218.621 31.894 218.897 32.354C219.173 32.7833 219.633 33.1053 220.277 33.32L218.897 37.644C217.455 37.5213 216.275 37.184 215.355 36.632C214.465 36.08 213.775 35.2213 213.285 34.056C211.69 36.5093 209.252 37.736 205.971 37.736C203.548 37.736 201.616 37.046 200.175 35.666C198.764 34.2553 198.059 32.4307 198.059 30.192C198.059 27.524 199.025 25.4847 200.957 24.074C202.889 22.6633 205.664 21.958 209.283 21.958H212.089V20.762C212.089 19.2593 211.751 18.2167 211.077 17.634C210.402 17.0513 209.283 16.76 207.719 16.76C206.001 16.76 203.855 17.1893 201.279 18.048L199.807 13.678C202.843 12.482 205.848 11.884 208.823 11.884C212.135 11.884 214.573 12.6047 216.137 14.046C217.701 15.4567 218.483 17.5727 218.483 20.394V30.238ZM207.765 33.044C209.605 33.044 211.046 32.1393 212.089 30.33V25.684H209.927C206.4 25.684 204.637 27.0027 204.637 29.64C204.637 30.7133 204.897 31.5567 205.419 32.17C205.971 32.7527 206.753 33.044 207.765 33.044ZM243.414 30.238C243.414 31.1887 243.552 31.894 243.828 32.354C244.104 32.7833 244.564 33.1053 245.208 33.32L243.828 37.644C242.387 37.5213 241.206 37.184 240.286 36.632C239.397 36.08 238.707 35.2213 238.216 34.056C236.622 36.5093 234.184 37.736 230.902 37.736C228.48 37.736 226.548 37.046 225.106 35.666C223.696 34.2553 222.99 32.4307 222.99 30.192C222.99 27.524 223.956 25.4847 225.888 24.074C227.82 22.6633 230.596 21.958 234.214 21.958H237.02V20.762C237.02 19.2593 236.683 18.2167 236.008 17.634C235.334 17.0513 234.214 16.76 232.65 16.76C230.933 16.76 228.786 17.1893 226.21 18.048L224.738 13.678C227.774 12.482 230.78 11.884 233.754 11.884C237.066 11.884 239.504 12.6047 241.068 14.046C242.632 15.4567 243.414 17.5727 243.414 20.394V30.238ZM232.696 33.044C234.536 33.044 235.978 32.1393 237.02 30.33V25.684H234.858C231.332 25.684 229.568 27.0027 229.568 29.64C229.568 30.7133 229.829 31.5567 230.35 32.17C230.902 32.7527 231.684 33.044 232.696 33.044ZM236.606 7.56C235.962 7.56 235.395 7.45267 234.904 7.238C234.444 7.02333 233.892 6.71666 233.248 6.318C232.85 6.01133 232.497 5.79666 232.19 5.674C231.914 5.52066 231.623 5.444 231.316 5.444C230.826 5.444 230.396 5.61266 230.028 5.95C229.66 6.28733 229.277 6.80867 228.878 7.514L225.52 5.858C226.134 4.35533 226.931 3.12867 227.912 2.178C228.894 1.22733 229.998 0.751998 231.224 0.751998C231.93 0.751998 232.528 0.874665 233.018 1.12C233.509 1.33466 234.061 1.64133 234.674 2.04C235.073 2.316 235.41 2.53066 235.686 2.684C235.962 2.80666 236.254 2.868 236.56 2.868C237.051 2.868 237.465 2.71466 237.802 2.408C238.17 2.07067 238.569 1.54933 238.998 0.843999L242.356 2.5C241.743 4.064 240.946 5.306 239.964 6.226C238.983 7.11533 237.864 7.56 236.606 7.56ZM260.199 11.884C263.848 11.884 266.7 13.034 268.755 15.334C270.809 17.6033 271.837 20.762 271.837 24.81C271.837 27.386 271.361 29.6553 270.411 31.618C269.491 33.55 268.141 35.0527 266.363 36.126C264.615 37.1993 262.545 37.736 260.153 37.736C256.503 37.736 253.636 36.6013 251.551 34.332C249.496 32.032 248.469 28.858 248.469 24.81C248.469 22.234 248.929 19.98 249.849 18.048C250.799 16.0853 252.149 14.5673 253.897 13.494C255.675 12.4207 257.776 11.884 260.199 11.884ZM260.199 16.76C258.543 16.76 257.301 17.4193 256.473 18.738C255.675 20.026 255.277 22.05 255.277 24.81C255.277 27.57 255.675 29.6093 256.473 30.928C257.301 32.216 258.527 32.86 260.153 32.86C261.778 32.86 262.989 32.216 263.787 30.928C264.615 29.6093 265.029 27.57 265.029 24.81C265.029 22.05 264.63 20.026 263.833 18.738C263.035 17.4193 261.824 16.76 260.199 16.76Z" fill="#141414"/>
</svg>
